<svg width="57" height="57" viewBox="0 0 57 57" fill="none" xmlns="http://www.w3.org/2000/svg">
<path d="M33.25 16.625C33.25 19.2484 31.1234 21.375 28.5 21.375C25.8766 21.375 23.75 19.2484 23.75 16.625C23.75 14.0016 25.8766 11.875 28.5 11.875C31.1234 11.875 33.25 14.0016 33.25 16.625Z" stroke="white" stroke-width="3.5625"/>
<path d="M42.75 23.75C42.75 23.75 34.3489 27.3125 28.5 27.3125C22.651 27.3125 14.25 23.75 14.25 23.75" stroke="white" stroke-width="3.5625" stroke-linecap="round"/>
<path d="M28.5 28.5V31.949M28.5 31.949C28.5 33.3153 28.8928 34.6527 29.6317 35.8019L35.625 45.125M28.5 31.949C28.5 33.3153 28.1072 34.6527 27.3683 35.8019L21.375 45.125" stroke="white" stroke-width="3.5625" stroke-linecap="round"/>
<path d="M16.625 7.92732C20.1183 5.90655 24.1742 4.75 28.5 4.75C41.6166 4.75 52.25 15.3832 52.25 28.5C52.25 41.6166 41.6166 52.25 28.5 52.25C15.3832 52.25 4.75 41.6166 4.75 28.5C4.75 24.1742 5.90655 20.1183 7.92732 16.625" stroke="white" stroke-width="3.5625" stroke-linecap="round"/>
</svg>
