<svg width="59" height="57" viewBox="0 0 59 57" fill="none" xmlns="http://www.w3.org/2000/svg">
<g clip-path="url(#clip0_55_1222)">
<path d="M29.3859 0C13.1586 0 0 13.0657 0 29.1836C0 42.0779 8.41995 53.017 20.096 56.876C21.5645 57.1461 22.1038 56.2429 22.1038 55.472C22.1038 54.7762 22.0764 52.4771 22.0639 50.0386C13.8885 51.804 12.1634 46.5953 12.1634 46.5953C10.8267 43.222 8.9007 42.3253 8.9007 42.3253C6.23464 40.5139 9.10167 40.551 9.10167 40.551C12.0526 40.757 13.6064 43.5585 13.6064 43.5585C16.2273 48.0201 20.4808 46.7301 22.1577 45.9846C22.4214 44.0982 23.1831 42.811 24.0234 42.0822C17.4965 41.3441 10.635 38.8417 10.635 27.6595C10.635 24.4734 11.7829 21.8699 13.6629 19.8262C13.3577 19.091 12.352 16.1229 13.9475 12.103C13.9475 12.103 16.4151 11.3187 22.0307 15.0945C24.3746 14.4477 26.8886 14.1236 29.3859 14.1126C31.8833 14.1236 34.3991 14.4477 36.7476 15.0945C42.3565 11.3187 44.8206 12.103 44.8206 12.103C46.4201 16.1229 45.4139 19.091 45.1087 19.8262C46.9928 21.8699 48.1329 24.4732 48.1329 27.6595C48.1329 38.8683 41.2585 41.3365 34.715 42.0589C35.769 42.9645 36.7081 44.7407 36.7081 47.4632C36.7081 51.3679 36.674 54.5107 36.674 55.472C36.674 56.2486 37.203 57.1587 38.6927 56.8721C50.3623 53.0088 58.7716 42.0735 58.7716 29.1836C58.7716 13.0657 45.6148 0 29.3859 0Z" fill="white"/>
<path d="M11.0058 41.5727C10.9413 41.7176 10.7113 41.7611 10.5022 41.6618C10.2891 41.5665 10.1692 41.3688 10.2384 41.2232C10.3017 41.074 10.5317 41.0323 10.7445 41.1326C10.9581 41.2276 11.0798 41.4272 11.0058 41.5727ZM12.4513 42.8535C12.3112 42.9826 12.0372 42.9227 11.8512 42.7187C11.659 42.5153 11.623 42.2433 11.7652 42.1122C11.9097 41.9833 12.1754 42.0435 12.3681 42.2472C12.5603 42.453 12.5977 42.7233 12.4511 42.8538M13.443 44.4923C13.2628 44.6166 12.9683 44.5001 12.7864 44.2406C12.6064 43.9812 12.6064 43.67 12.7903 43.5452C12.9729 43.4205 13.2628 43.5326 13.4472 43.7901C13.6269 44.054 13.6269 44.3653 13.4428 44.4926M15.1199 46.3905C14.9588 46.5667 14.6159 46.5196 14.3647 46.2788C14.1079 46.0435 14.0362 45.7095 14.1978 45.5331C14.3607 45.3564 14.7058 45.406 14.9588 45.6448C15.2139 45.8796 15.2916 46.2161 15.1199 46.3905ZM17.2872 47.0313C17.2165 47.2598 16.886 47.3637 16.5532 47.2666C16.2209 47.1666 16.0033 46.8988 16.0704 46.6679C16.1395 46.4378 16.4714 46.3296 16.8067 46.4335C17.1386 46.5331 17.3564 46.7988 17.2872 47.0313ZM19.7542 47.303C19.7625 47.5438 19.4801 47.7434 19.1308 47.7477C18.7793 47.7553 18.4951 47.5605 18.4914 47.3238C18.4914 47.0808 18.7673 46.883 19.1185 46.8773C19.4679 46.8704 19.7542 47.0638 19.7542 47.303ZM22.1773 47.2108C22.2193 47.4456 21.9764 47.6868 21.6295 47.7509C21.2884 47.8127 20.9727 47.6678 20.9291 47.4351C20.8867 47.1943 21.1342 46.9533 21.4746 46.8908C21.8222 46.8308 22.1331 46.972 22.1773 47.2108Z" fill="white"/>
</g>
<defs>
<clipPath id="clip0_55_1222">
<rect width="59" height="57" fill="white"/>
</clipPath>
</defs>
</svg>
