<svg width="25" height="24" viewBox="0 0 25 24" fill="none" xmlns="http://www.w3.org/2000/svg">
<path d="M20.5 1.92H4.5C3.12 1.92 2 2.9952 2 4.32V19.68C2 21.0048 3.12 22.08 4.5 22.08H20.5C21.88 22.08 23 21.0048 23 19.68V4.32C23 2.9952 21.88 1.92 20.5 1.92ZM8.5 9.6V18.72H5.5V9.6H8.5ZM5.5 6.9456C5.5 6.2736 6.1 5.76 7 5.76C7.9 5.76 8.465 6.2736 8.5 6.9456C8.5 7.6176 7.94 8.16 7 8.16C6.1 8.16 5.5 7.6176 5.5 6.9456ZM19.5 18.72H16.5C16.5 18.72 16.5 14.2752 16.5 13.92C16.5 12.96 16 12 14.75 11.9808H14.71C13.5 11.9808 13 12.9696 13 13.92C13 14.3568 13 18.72 13 18.72H10V9.6H13V10.8288C13 10.8288 13.965 9.6 15.905 9.6C17.89 9.6 19.5 10.9104 19.5 13.5648V18.72Z" fill="#FEFEFF"/>
</svg>
