<svg width="93" height="57" viewBox="0 0 93 57" fill="none" xmlns="http://www.w3.org/2000/svg">
<path d="M45.9751 56.8355C45.6604 56.8355 45.3665 56.7517 45.0935 56.6048L42.3019 54.9475C41.882 54.7166 42.092 54.6327 42.218 54.5908C42.7847 54.402 42.8896 54.3598 43.4773 54.0244C43.5404 53.9823 43.6245 54.0033 43.6873 54.0453L45.8284 55.325C45.9123 55.367 46.0173 55.367 46.0801 55.325L54.4553 50.4786C54.5392 50.4367 54.5814 50.3526 54.5814 50.2479V40.576C54.5814 40.4709 54.5392 40.3872 54.4553 40.3451L46.0801 35.5197C45.9962 35.4776 45.8912 35.4776 45.8284 35.5197L37.4531 40.3451C37.3692 40.387 37.3271 40.492 37.3271 40.5758V50.2477C37.3271 50.3317 37.3692 50.4365 37.4531 50.4786L39.7411 51.8003C40.9796 52.4297 41.7562 51.6954 41.7562 50.9611V41.415C41.7562 41.2892 41.8611 41.1633 42.0081 41.1633H43.0785C43.2046 41.1633 43.3304 41.2682 43.3304 41.415V50.9611C43.3304 52.6184 42.4278 53.5836 40.8535 53.5836C40.3708 53.5836 39.993 53.5836 38.9224 53.059L36.7185 51.8003C36.1727 51.4857 35.8369 50.8981 35.8369 50.2687V40.5969C35.8369 39.9675 36.1727 39.3799 36.7185 39.0653L45.0935 34.2189C45.6184 33.9252 46.3322 33.9252 46.8569 34.2189L55.2319 39.0653C55.7777 39.3799 56.1137 39.9675 56.1137 40.5969V50.2687C56.1137 50.8981 55.7777 51.4857 55.2319 51.8003L46.8569 56.6467C46.5839 56.7727 46.269 56.8355 45.9751 56.8355ZM48.557 50.1849C44.8838 50.1849 44.1281 48.5065 44.1281 47.0798C44.1281 46.9538 44.233 46.828 44.38 46.828H45.4715C45.5974 46.828 45.7023 46.9119 45.7023 47.0379C45.8703 48.1498 46.3531 48.6952 48.578 48.6952C50.3412 48.6952 51.0971 48.2966 51.0971 47.3525C51.0971 46.807 50.8869 46.4085 48.1373 46.1357C45.8493 45.9048 44.4219 45.4014 44.4219 43.5761C44.4219 41.8767 45.8494 40.8695 48.2422 40.8695C50.9289 40.8695 52.2514 41.7928 52.4194 43.8067C52.4194 43.8699 52.3983 43.9327 52.3564 43.9957C52.3143 44.0376 52.2514 44.0795 52.1884 44.0795H51.0969C50.9919 44.0795 50.8869 43.9957 50.866 43.8907C50.6141 42.7369 49.9634 42.3592 48.2422 42.3592C46.3111 42.3592 46.0801 43.0306 46.0801 43.534C46.0801 44.1425 46.3531 44.3313 48.9558 44.6669C51.5377 45.0028 52.7552 45.4853 52.7552 47.2895C52.7342 49.1358 51.2229 50.1849 48.557 50.1849Z" fill="#539E43"/>
<path d="M19.9888 19.0082C19.9888 18.6307 19.7789 18.2738 19.443 18.085L10.5431 12.9659C10.396 12.8818 10.2282 12.8399 10.0604 12.8188H9.97628C9.80847 12.8188 9.64048 12.8818 9.49355 12.9659L0.593609 18.085C0.257619 18.2738 0.0478516 18.6305 0.0478516 19.0082L0.0689191 32.7712C0.0689191 32.96 0.173893 33.1488 0.341707 33.2328C0.509702 33.3378 0.71947 33.3378 0.866579 33.2328L6.15616 30.2116C6.49197 30.0229 6.70192 29.6662 6.70192 29.2886V22.8476C6.70192 22.47 6.91169 22.1133 7.24768 21.9245L9.49355 20.6237C9.66154 20.5187 9.85042 20.4766 10.0393 20.4766C10.2282 20.4766 10.4171 20.5187 10.5642 20.6237L12.81 21.9245C13.146 22.1133 13.3558 22.4698 13.3558 22.8476V29.2886C13.3558 29.6662 13.5658 30.0229 13.9016 30.2116L19.1911 33.2328C19.3591 33.3378 19.5689 33.3378 19.7369 33.2328C19.9049 33.1488 20.0099 32.96 20.0099 32.7712L19.9888 19.0082ZM62.7673 0.0630053C62.5995 -0.0210425 62.3896 -0.0210425 62.2424 0.0630053C62.0746 0.167929 61.9697 0.335661 61.9697 0.524451V14.1618C61.9697 14.2876 61.9068 14.4134 61.7808 14.4974C61.6549 14.5602 61.5289 14.5602 61.403 14.4974L59.178 13.2177C59.0149 13.1248 58.8304 13.076 58.6427 13.076C58.455 13.076 58.2705 13.1248 58.1074 13.2177L49.2075 18.3578C48.8717 18.5466 48.6617 18.9033 48.6617 19.2809V29.5402C48.6617 29.9178 48.8717 30.2746 49.2075 30.4634L58.1074 35.6036C58.2705 35.6964 58.455 35.7452 58.6427 35.7452C58.8304 35.7452 59.0149 35.6964 59.178 35.6036L68.078 30.4634C68.4138 30.2746 68.6237 29.9179 68.6237 29.5402V3.96533C68.6237 3.56669 68.4138 3.21017 68.078 3.0212L62.7673 0.0630053ZM61.9488 26.1625C61.9488 26.2674 61.9068 26.3513 61.8227 26.3932L58.7792 28.1555C58.7367 28.1762 58.69 28.187 58.6427 28.187C58.5954 28.187 58.5487 28.1762 58.5062 28.1555L55.4627 26.3932C55.3786 26.3513 55.3367 26.2463 55.3367 26.1625V22.6377C55.3367 22.5328 55.3786 22.4489 55.4627 22.407L58.5062 20.6445C58.5487 20.6238 58.5954 20.613 58.6427 20.613C58.69 20.613 58.7367 20.6238 58.7792 20.6445L61.8227 22.407C61.9068 22.4488 61.9488 22.5539 61.9488 22.6377V26.1625ZM92.3848 22.5539C92.7208 22.3651 92.9097 22.0084 92.9097 21.6306V19.134C92.9097 18.7565 92.6997 18.3998 92.3848 18.211L83.5479 13.0919C83.3848 12.9991 83.2003 12.9503 83.0127 12.9503C82.825 12.9503 82.6405 12.9991 82.4774 13.0919L73.5775 18.2318C73.2415 18.4206 73.0317 18.7773 73.0317 19.1551V29.4144C73.0317 29.792 73.2415 30.1487 73.5775 30.3374L82.4144 35.3727C82.7504 35.5615 83.1491 35.5615 83.464 35.3727L88.8164 32.3938C88.9844 32.3098 89.0894 32.121 89.0894 31.9322C89.0894 31.7434 88.9844 31.5546 88.8164 31.4706L79.8745 26.3304C79.7067 26.2256 79.6017 26.0577 79.6017 25.8689V22.659C79.6017 22.4702 79.7067 22.2814 79.8745 22.1973L82.6663 20.6028C82.748 20.5514 82.8426 20.5241 82.9392 20.5241C83.0358 20.5241 83.1303 20.5514 83.2121 20.6028L86.0037 22.1973C86.1717 22.3023 86.2767 22.47 86.2767 22.659V25.1766C86.2767 25.3654 86.3816 25.5542 86.5495 25.638C86.7175 25.743 86.9272 25.743 87.0952 25.638L92.3848 22.5539Z" fill="white"/>
<path d="M82.8766 22.0714C82.9077 22.0509 82.9442 22.0399 82.9814 22.0399C83.0187 22.0399 83.0552 22.0509 83.0863 22.0714L84.7866 23.0574C84.8496 23.0992 84.8916 23.1622 84.8916 23.2462V25.2183C84.8916 25.3022 84.8496 25.3652 84.7866 25.4071L83.0863 26.3932C83.0552 26.4137 83.0187 26.4246 82.9814 26.4246C82.9442 26.4246 82.9077 26.4137 82.8766 26.3932L81.1763 25.4071C81.1132 25.3652 81.0713 25.3022 81.0713 25.2183V23.2462C81.0713 23.1622 81.1132 23.0992 81.1763 23.0574L82.8766 22.0714Z" fill="#539E43"/>
<path d="M34.8707 13.1338C34.7076 13.041 34.5232 12.9922 34.3355 12.9922C34.1478 12.9922 33.9634 13.041 33.8003 13.1338L24.9633 18.2317C24.6274 18.4205 24.4385 18.7772 24.4385 19.1547V29.3723C24.4385 29.7498 24.6484 30.1065 24.9633 30.2953L33.8003 35.3936C33.9634 35.4864 34.1478 35.5352 34.3355 35.5352C34.5232 35.5352 34.7076 35.4864 34.8707 35.3936L43.7078 30.2953C44.0436 30.1065 44.2327 29.7498 44.2327 29.3723V19.1549C44.2327 18.7773 44.0226 18.4206 43.7078 18.2319L34.8707 13.1338Z" fill="url(#paint0_linear_55_1249)"/>
<mask id="mask0_55_1249" style="mask-type:luminance" maskUnits="userSpaceOnUse" x="24" y="12" width="21" height="24">
<path d="M34.8707 13.1338C34.7076 13.041 34.5232 12.9922 34.3355 12.9922C34.1478 12.9922 33.9634 13.041 33.8003 13.1338L24.9633 18.2317C24.6274 18.4205 24.4385 18.7772 24.4385 19.1547V29.3723C24.4385 29.7498 24.6484 30.1065 24.9633 30.2953L33.8003 35.3936C33.9634 35.4864 34.1478 35.5352 34.3355 35.5352C34.5232 35.5352 34.7076 35.4864 34.8707 35.3936L43.7078 30.2953C44.0436 30.1065 44.2327 29.7498 44.2327 29.3723V19.1549C44.2327 18.7773 44.0226 18.4206 43.7078 18.2319L34.8707 13.1338Z" fill="white"/>
</mask>
<g mask="url(#mask0_55_1249)">
<path d="M43.7283 18.2318L34.8494 13.1338C34.7622 13.0898 34.6707 13.0546 34.5765 13.0289L24.627 30.065C24.7094 30.1655 24.8089 30.2508 24.921 30.3168L33.7999 35.415C34.0518 35.5618 34.3456 35.6038 34.6184 35.5197L43.9593 18.4419C43.8963 18.358 43.8122 18.2947 43.7283 18.2318Z" fill="url(#paint1_linear_55_1249)"/>
</g>
<mask id="mask1_55_1249" style="mask-type:luminance" maskUnits="userSpaceOnUse" x="24" y="12" width="21" height="24">
<path d="M34.8707 13.1338C34.7076 13.041 34.5232 12.9922 34.3355 12.9922C34.1478 12.9922 33.9634 13.041 33.8003 13.1338L24.9633 18.2317C24.6274 18.4205 24.4385 18.7772 24.4385 19.1547V29.3723C24.4385 29.7498 24.6484 30.1065 24.9633 30.2953L33.8003 35.3936C33.9634 35.4864 34.1478 35.5352 34.3355 35.5352C34.5232 35.5352 34.7076 35.4864 34.8707 35.3936L43.7078 30.2953C44.0436 30.1065 44.2327 29.7498 44.2327 29.3723V19.1549C44.2327 18.7773 44.0226 18.4206 43.7078 18.2319L34.8707 13.1338Z" fill="white"/>
</mask>
<g mask="url(#mask1_55_1249)">
<path fill-rule="evenodd" clip-rule="evenodd" d="M43.7495 30.2955C44.0014 30.1487 44.1903 29.8969 44.2744 29.6242L34.5344 13.0078C34.2825 12.9659 34.0096 12.9868 33.7789 13.1336L24.9629 18.211L34.4714 35.5406C34.6097 35.518 34.744 35.4756 34.8703 35.4148L43.7493 30.2957L43.7495 30.2955Z" fill="url(#paint2_linear_55_1249)"/>
<path fill-rule="evenodd" clip-rule="evenodd" d="M43.75 30.2955L34.892 35.3938C34.7669 35.4575 34.6322 35.5 34.4932 35.5196L34.6612 35.8343L44.4846 30.1489V30.0229L44.2327 29.6032C44.1908 29.8969 44.0019 30.1487 43.75 30.2955Z" fill="url(#paint3_linear_55_1249)"/>
<path fill-rule="evenodd" clip-rule="evenodd" d="M43.75 30.2955L34.892 35.3938C34.7669 35.4575 34.6322 35.5 34.4932 35.5196L34.6612 35.8343L44.4846 30.1489V30.0229L44.2327 29.6032C44.1908 29.8969 44.0019 30.1487 43.75 30.2955Z" fill="url(#paint4_linear_55_1249)"/>
</g>
<defs>
<linearGradient id="paint0_linear_55_1249" x1="1374.17" y1="407.201" x2="406.221" y2="1928.86" gradientUnits="userSpaceOnUse">
<stop stop-color="#41873F"/>
<stop offset="0.3288" stop-color="#418B3D"/>
<stop offset="0.6352" stop-color="#419637"/>
<stop offset="0.9319" stop-color="#3FA92D"/>
<stop offset="1" stop-color="#3FAE2A"/>
</linearGradient>
<linearGradient id="paint1_linear_55_1249" x1="861.273" y1="1256.19" x2="3286.58" y2="-62.1247" gradientUnits="userSpaceOnUse">
<stop offset="0.1376" stop-color="#41873F"/>
<stop offset="0.4032" stop-color="#54A044"/>
<stop offset="0.7136" stop-color="#66B848"/>
<stop offset="0.9081" stop-color="#6CC04A"/>
</linearGradient>
<linearGradient id="paint2_linear_55_1249" x1="-59.7952" y1="1140.52" x2="1985.06" y2="1140.52" gradientUnits="userSpaceOnUse">
<stop offset="0.09192" stop-color="#6CC04A"/>
<stop offset="0.2864" stop-color="#66B848"/>
<stop offset="0.5968" stop-color="#54A044"/>
<stop offset="0.8624" stop-color="#41873F"/>
</linearGradient>
<linearGradient id="paint3_linear_55_1249" x1="-1003.23" y1="342.874" x2="1041.6" y2="342.874" gradientUnits="userSpaceOnUse">
<stop offset="0.09192" stop-color="#6CC04A"/>
<stop offset="0.2864" stop-color="#66B848"/>
<stop offset="0.5968" stop-color="#54A044"/>
<stop offset="0.8624" stop-color="#41873F"/>
</linearGradient>
<linearGradient id="paint4_linear_55_1249" x1="1339.51" y1="-1285.6" x2="821.955" y2="1427.67" gradientUnits="userSpaceOnUse">
<stop stop-color="#41873F"/>
<stop offset="0.3288" stop-color="#418B3D"/>
<stop offset="0.6352" stop-color="#419637"/>
<stop offset="0.9319" stop-color="#3FA92D"/>
<stop offset="1" stop-color="#3FAE2A"/>
</linearGradient>
</defs>
</svg>
